<?xml version="1.0" encoding="UTF-8"?>
<svg version="1.1" xmlns="http://www.w3.org/2000/svg" width="32" height="32">
<path d="M0 0 C4.36563955 3.40519885 6.65875906 6.44779007 7.50390625 11.8671875 C7.78817485 17.90101785 6.84570953 21.66735957 3.125 26.4375 C-1.64514043 30.15820953 -5.41148215 31.10067485 -11.4453125 30.81640625 C-16.86470993 29.97125906 -19.90730115 27.67813955 -23.3125 23.3125 C-25.8128279 18.26854848 -25.92696073 12.71164997 -24.21484375 7.3828125 C-22.32987667 3.58023822 -19.73226178 0.98262333 -15.9296875 -0.90234375 C-10.60085003 -2.61446073 -5.04395152 -2.5003279 0 0 Z " fill="#D62D58" transform="translate(24.875,1.5625)"/>
<path d="M0 0 C4.36563955 3.40519885 6.65875906 6.44779007 7.50390625 11.8671875 C7.78817485 17.90101785 6.84570953 21.66735957 3.125 26.4375 C-1.64514043 30.15820953 -5.41148215 31.10067485 -11.4453125 30.81640625 C-16.86470993 29.97125906 -19.90730115 27.67813955 -23.3125 23.3125 C-25.8128279 18.26854848 -25.92696073 12.71164997 -24.21484375 7.3828125 C-22.32987667 3.58023822 -19.73226178 0.98262333 -15.9296875 -0.90234375 C-10.60085003 -2.61446073 -5.04395152 -2.5003279 0 0 Z M-18.875 7.4375 C-19.720625 8.035625 -20.56625 8.63375 -21.4375 9.25 C-23.48032197 12.35864213 -23.07432718 14.66109749 -22.484375 18.25390625 C-21.31136508 22.4571918 -18.90471366 24.63042713 -15.5625 27.25 C-10.96670085 29.28070195 -7.34456181 28.98498381 -2.6875 27.25 C1.07037374 24.82825914 3.44838429 22.75981973 4.73046875 18.359375 C5.4359876 14.25199794 5.42991736 11.27957904 3.4375 7.5625 C0.15508582 3.12680517 -1.08948629 1.70532706 -6.625 0.875 C-11.91223968 1.06242081 -15.0634463 4.06347565 -18.875 7.4375 Z " fill="#F65079" transform="translate(24.875,1.5625)"/>
<path d="M0 0 C3.0625 0.1875 3.0625 0.1875 5.0625 2.1875 C5.59645429 5.5914586 5.64788512 8.05901995 4.03515625 11.16796875 C1.90348452 14.03184905 0.20575023 15.84663142 -3.26953125 16.8828125 C-9.08201613 17.61524194 -9.08201613 17.61524194 -11.9375 16.1875 C-12.2675 15.1975 -12.5975 14.2075 -12.9375 13.1875 C-14.95258358 12.45426204 -14.95258358 12.45426204 -16.9375 12.1875 C-16.9375 9.1875 -16.9375 9.1875 -15.25 7.4375 C-12.9375 6.1875 -12.9375 6.1875 -10.1875 6.5 C-9.445 6.726875 -8.7025 6.95375 -7.9375 7.1875 C-7.6075 6.1975 -7.2775 5.2075 -6.9375 4.1875 C-6.2775 4.1875 -5.6175 4.1875 -4.9375 4.1875 C-4.9375 5.5075 -4.9375 6.8275 -4.9375 8.1875 C-4.6075 7.8575 -4.2775 7.5275 -3.9375 7.1875 C-3.9375 6.1975 -3.9375 5.2075 -3.9375 4.1875 C-3.9375 0.25132979 -3.9375 0.25132979 0 0 Z " fill="#F6B9A4" transform="translate(21.9375,9.8125)"/>
<path d="M0 0 C2.375 0.8125 2.375 0.8125 4.375 2.8125 C2.395 3.8025 2.395 3.8025 0.375 4.8125 C0.375 7.1225 0.375 9.4325 0.375 11.8125 C-0.285 11.8125 -0.945 11.8125 -1.625 11.8125 C-1.625 10.4925 -1.625 9.1725 -1.625 7.8125 C-2.285 7.8125 -2.945 7.8125 -3.625 7.8125 C-3.625 9.4625 -3.625 11.1125 -3.625 12.8125 C-4.285 12.1525 -4.945 11.4925 -5.625 10.8125 C-8.24080479 11.1394756 -10.26578137 11.63289068 -12.625 12.8125 C-13 10.0625 -13 10.0625 -12.625 6.8125 C-9.875 4.625 -9.875 4.625 -6.625 2.8125 C-5.944375 2.214375 -5.26375 1.61625 -4.5625 1 C-2.625 -0.1875 -2.625 -0.1875 0 0 Z " fill="#A82C55" transform="translate(18.625,6.1875)"/>
<path d="M0 0 C2.475 0.495 2.475 0.495 5 1 C5 2.65 5 4.3 5 6 C3.68 5.67 2.36 5.34 1 5 C0.67 3.35 0.34 1.7 0 0 Z " fill="#FBDBC7" transform="translate(20,12)"/>
<path d="M0 0 C0.66 0.33 1.32 0.66 2 1 C2 3.97 2 6.94 2 10 C1.01 9.67 0.02 9.34 -1 9 C-1.09765625 2.84765625 -1.09765625 2.84765625 -1 1 C-0.67 0.67 -0.34 0.34 0 0 Z " fill="#F1B19F" transform="translate(19,10)"/>
<path d="M0 0 C1.67542976 0.28604898 3.34385343 0.61781233 5 1 C5.33 2.65 5.66 4.3 6 6 C5.01 6.495 5.01 6.495 4 7 C3.87625 6.071875 3.87625 6.071875 3.75 5.125 C3.18741541 2.81562433 3.18741541 2.81562433 0.9375 1.75 C0.298125 1.5025 -0.34125 1.255 -1 1 C-0.67 0.67 -0.34 0.34 0 0 Z " fill="#FAC5AD" transform="translate(21,10)"/>
</svg>
