<?xml version="1.0" encoding="iso-8859-1"?>
<!-- Uploaded to: SVG Repo, www.svgrepo.com, Generator: SVG Repo Mixer Tools -->
<svg height="800px" width="800px" version="1.1" id="Layer_1" xmlns="http://www.w3.org/2000/svg" xmlns:xlink="http://www.w3.org/1999/xlink" 
	 viewBox="0 0 512.001 512.001" xml:space="preserve">
<circle style="fill:#A2D8F4;" cx="384.262" cy="376.416" r="119.571"/>
<path style="fill:#88C7E2;" d="M384.266,256.837c-4.015,0-7.981,0.202-11.893,0.588c60.456,5.97,107.683,56.962,107.683,118.988
	S432.829,489.43,372.373,495.4c3.912,0.386,7.88,0.588,11.893,0.588c66.04,0,119.576-53.536,119.576-119.576
	S450.306,256.837,384.266,256.837z"/>
<path style="fill:#FDEA96;" d="M38.041,364.069L38.041,364.069c-40.672-40.672-40.672-106.612,0-147.283L209.256,45.571
	c40.672-40.672,106.612-40.672,147.283,0l0,0c40.672,40.672,40.672,106.612,0,147.283L185.324,364.069
	C144.652,404.74,78.712,404.74,38.041,364.069z"/>
<path style="fill:#E8D37C;" d="M356.538,45.571L356.538,45.571c-2.816-2.816-5.757-5.429-8.798-7.856
	c32.613,40.887,29.999,100.629-7.856,138.484L168.67,347.416c-37.855,37.855-97.598,40.469-138.485,7.856
	c2.426,3.042,5.04,5.983,7.856,8.798l0,0c40.672,40.672,106.612,40.672,147.283,0l171.215-171.215
	C397.21,152.183,397.21,86.243,356.538,45.571z"/>
<path style="fill:#ED2601;" d="M225.496,176.613L225.496,176.613c-40.672-40.672-106.612-40.672-147.283,0l-40.176,40.176
	C-2.63,257.459-2.629,323.399,38.04,364.069l0,0c40.672,40.672,106.612,40.672,147.283,0l40.176-40.176
	C266.168,283.222,266.167,217.284,225.496,176.613z"/>
<path style="fill:#C91C00;" d="M225.499,323.894c17.699-17.7,27.691-40.186,29.985-63.291l-86.814,86.814
	c-37.855,37.855-97.598,40.469-138.485,7.856c0.596,0.748,1.205,1.49,1.825,2.225c0.016,0.019,0.031,0.038,0.048,0.058
	c0.579,0.685,1.169,1.364,1.768,2.039c0.066,0.074,0.131,0.15,0.197,0.223c0.546,0.612,1.105,1.217,1.668,1.818
	c0.113,0.12,0.223,0.243,0.337,0.363c0.659,0.698,1.33,1.389,2.013,2.073l0,0c6.355,6.355,13.327,11.716,20.723,16.086
	c0.74,0.437,1.484,0.864,2.232,1.281c4.488,2.502,9.121,4.647,13.857,6.435c0.79,0.298,1.582,0.586,2.377,0.864
	c3.181,1.112,6.404,2.065,9.658,2.86c2.441,0.595,4.899,1.102,7.369,1.519c1.647,0.278,3.299,0.516,4.955,0.715
	c8.28,0.993,16.658,0.993,24.939,0c1.656-0.199,3.308-0.437,4.955-0.715c2.47-0.417,4.929-0.924,7.369-1.519
	c3.254-0.794,6.479-1.747,9.658-2.86c0.795-0.278,1.587-0.566,2.377-0.864c4.738-1.787,9.371-3.932,13.857-6.435
	c0.748-0.417,1.492-0.844,2.232-1.281c7.396-4.369,14.368-9.731,20.723-16.086L225.499,323.894z"/>
<path style="fill:#E6E6E6;" d="M264.691,376.413c0,6.76,0.57,13.387,1.648,19.842h235.856c1.078-6.455,1.648-13.081,1.648-19.842
	s-0.57-13.387-1.648-19.842H266.338C265.261,363.026,264.691,369.652,264.691,376.413z"/>
<g>
	<path style="fill:#ED2601;" d="M8.428,276.857c0.168-1.287,0.353-2.572,0.569-3.852C8.781,274.285,8.595,275.57,8.428,276.857z"/>
	<path style="fill:#ED2601;" d="M17.412,246.108c0.288-0.613,0.578-1.224,0.878-1.833C17.99,244.883,17.7,245.495,17.412,246.108z"
		/>
	<path style="fill:#ED2601;" d="M9.745,269.074c0.069-0.331,0.133-0.663,0.205-0.994C9.878,268.411,9.814,268.744,9.745,269.074z"/>
	<path style="fill:#ED2601;" d="M7.61,286.725c0.045-1.264,0.105-2.527,0.196-3.788C7.715,284.198,7.655,285.462,7.61,286.725z"/>
	<path style="fill:#ED2601;" d="M12.052,260.046c0.414-1.363,0.852-2.722,1.324-4.071C12.904,257.323,12.468,258.682,12.052,260.046
		z"/>
	<path style="fill:#ED2601;" d="M13.427,255.832c1.1-3.132,2.353-6.221,3.761-9.257C15.78,249.611,14.528,252.701,13.427,255.832z"
		/>
	<path style="fill:#ED2601;" d="M7.547,291.194c-0.002-0.255-0.009-0.511-0.009-0.766C7.538,290.683,7.545,290.939,7.547,291.194z"
		/>
	<path style="fill:#ED2601;" d="M10.178,267.095c0.112-0.488,0.22-0.975,0.338-1.461C10.397,266.12,10.289,266.607,10.178,267.095z"
		/>
	<path style="fill:#ED2601;" d="M10.608,265.272c0.374-1.506,0.776-3.005,1.218-4.495C11.385,262.268,10.982,263.767,10.608,265.272
		z"/>
	<path style="fill:#ED2601;" d="M9.333,271.147c0.038-0.203,0.071-0.406,0.111-0.609C9.404,270.741,9.371,270.944,9.333,271.147z"/>
	<path style="fill:#ED2601;" d="M40.696,366.622c-0.894-0.833-1.78-1.678-2.65-2.549C38.916,364.944,39.802,365.79,40.696,366.622z"
		/>
	<path style="fill:#ED2601;" d="M36.164,362.144c-5.322-5.6-9.897-11.648-13.735-18.017
		C26.267,350.496,30.842,356.544,36.164,362.144z"/>
	<path style="fill:#ED2601;" d="M46.946,372.01c-0.969-0.77-1.929-1.556-2.877-2.366C45.017,370.455,45.978,371.24,46.946,372.01z"
		/>
	<path style="fill:#ED2601;" d="M21.335,342.267c-2.784-4.845-5.154-9.865-7.095-15.009
		C16.181,332.402,18.551,337.421,21.335,342.267z"/>
	<path style="fill:#ED2601;" d="M44.046,369.624c-0.929-0.795-1.845-1.615-2.753-2.448C42.2,368.01,43.116,368.829,44.046,369.624z"
		/>
	<path style="fill:#ED2601;" d="M14.002,326.604c-1.381-3.737-2.548-7.538-3.485-11.382
		C11.455,319.066,12.62,322.865,14.002,326.604z"/>
	<path style="fill:#ED2601;" d="M8.104,301.246c-0.029-0.278-0.063-0.557-0.09-0.835C8.041,300.689,8.075,300.967,8.104,301.246z"/>
	<path style="fill:#ED2601;" d="M8.829,306.777c-0.171-1.076-0.324-2.153-0.461-3.232C8.504,304.624,8.659,305.702,8.829,306.777z"
		/>
	<path style="fill:#ED2601;" d="M7.712,296.355c-0.018-0.311-0.041-0.62-0.055-0.931C7.671,295.735,7.694,296.045,7.712,296.355z"/>
	<path style="fill:#ED2601;" d="M10.353,314.515c-0.137-0.579-0.275-1.158-0.402-1.739
		C10.077,313.357,10.215,313.936,10.353,314.515z"/>
	<path style="fill:#ED2601;" d="M7.883,282.005c0.042-0.52,0.081-1.04,0.131-1.56C7.964,280.964,7.926,281.485,7.883,282.005z"/>
	<path style="fill:#ED2601;" d="M22.313,236.918c0.766-1.278,1.556-2.544,2.381-3.794C23.869,234.375,23.079,235.641,22.313,236.918
		z"/>
	<path style="fill:#ED2601;" d="M28.169,228.193c0.881-1.179,1.784-2.348,2.721-3.498C29.953,225.846,29.05,227.014,28.169,228.193z
		"/>
	<path style="fill:#ED2601;" d="M36.164,362.144c0.615,0.648,1.241,1.289,1.877,1.925l0,0l0,0
		C37.405,363.433,36.779,362.792,36.164,362.144z"/>
	<path style="fill:#ED2601;" d="M78.216,176.611l-0.002,0.002l-40.176,40.176c-0.628,0.628-1.244,1.261-1.853,1.9
		c0.609-0.64,1.227-1.274,1.855-1.902L78.216,176.611z"/>
	<path style="fill:#ED2601;" d="M21.404,238.469c0.184-0.319,0.363-0.641,0.55-0.958C21.766,237.828,21.588,238.149,21.404,238.469z
		"/>
	<path style="fill:#ED2601;" d="M25.029,232.632c0.852-1.274,1.73-2.536,2.644-3.78C26.759,230.096,25.881,231.357,25.029,232.632z"
		/>
	<path style="fill:#ED2601;" d="M31.174,224.358c1.025-1.247,2.08-2.478,3.172-3.686C33.254,221.881,32.2,223.112,31.174,224.358z"
		/>
	<path style="fill:#ED2601;" d="M18.507,243.851c0.691-1.382,1.41-2.754,2.167-4.11C19.916,241.098,19.197,242.469,18.507,243.851z"
		/>
	<path style="fill:#ED2601;" d="M34.475,220.532c0.555-0.612,1.116-1.22,1.688-1.822C35.592,219.312,35.031,219.92,34.475,220.532z"
		/>
</g>
<g>
	<path style="fill:#FFF2BB;" d="M10.516,315.222c-0.058-0.235-0.108-0.472-0.163-0.707C10.409,314.75,10.459,314.987,10.516,315.222
		z"/>
	<path style="fill:#FFF2BB;" d="M9.95,312.776c-0.435-1.99-0.805-3.992-1.122-5.999C9.146,308.785,9.515,310.786,9.95,312.776z"/>
	<path style="fill:#FFF2BB;" d="M34.347,220.672c0.042-0.047,0.087-0.092,0.129-0.139C34.434,220.58,34.389,220.625,34.347,220.672z
		"/>
	<path style="fill:#FFF2BB;" d="M8.367,303.544c-0.096-0.766-0.184-1.532-0.264-2.3C8.183,302.013,8.271,302.78,8.367,303.544z"/>
	<path style="fill:#FFF2BB;" d="M36.164,218.711c0.007-0.007,0.015-0.015,0.022-0.022C36.179,218.696,36.171,218.704,36.164,218.711
		z"/>
	<path style="fill:#FFF2BB;" d="M8.014,300.411c-0.13-1.35-0.225-2.703-0.302-4.055C7.789,297.708,7.885,299.061,8.014,300.411z"/>
	<path style="fill:#FFF2BB;" d="M44.07,369.644c-0.008-0.006-0.016-0.014-0.024-0.02C44.053,369.632,44.062,369.638,44.07,369.644z"
		/>
	<path style="fill:#FFF2BB;" d="M14.24,327.259c-0.082-0.218-0.158-0.437-0.239-0.655C14.082,326.821,14.157,327.041,14.24,327.259z
		"/>
	<path style="fill:#FFF2BB;" d="M47.356,372.335c-0.137-0.108-0.273-0.217-0.409-0.325
		C47.083,372.119,47.219,372.227,47.356,372.335z"/>
	<path style="fill:#FFF2BB;" d="M41.293,367.176c-0.2-0.183-0.399-0.368-0.597-0.553C40.894,366.808,41.093,366.993,41.293,367.176z
		"/>
	<path style="fill:#FFF2BB;" d="M22.429,344.127c-0.371-0.617-0.737-1.237-1.094-1.86C21.693,342.89,22.057,343.51,22.429,344.127z"
		/>
	<polygon style="fill:#FFF2BB;" points="38.041,364.069 38.041,364.069 38.045,364.074 	"/>
	<path style="fill:#FFF2BB;" d="M20.673,239.741c0.238-0.427,0.487-0.849,0.73-1.273C21.159,238.893,20.911,239.314,20.673,239.741z
		"/>
	<path style="fill:#FFF2BB;" d="M11.826,260.777c0.072-0.245,0.152-0.488,0.226-0.731C11.978,260.29,11.898,260.532,11.826,260.777z
		"/>
	<path style="fill:#FFF2BB;" d="M10.516,265.634c0.029-0.12,0.063-0.241,0.093-0.361C10.579,265.393,10.546,265.513,10.516,265.634z
		"/>
	<path style="fill:#FFF2BB;" d="M7.657,295.424c-0.067-1.409-0.099-2.82-0.11-4.23C7.556,292.604,7.589,294.015,7.657,295.424z"/>
	<path style="fill:#FFF2BB;" d="M9.95,268.08c0.072-0.33,0.153-0.657,0.228-0.986C10.103,267.423,10.022,267.752,9.95,268.08z"/>
	<path style="fill:#FFF2BB;" d="M18.29,244.275c0.07-0.142,0.145-0.283,0.216-0.424C18.436,243.992,18.36,244.133,18.29,244.275z"/>
	<path style="fill:#FFF2BB;" d="M17.189,246.576c0.072-0.157,0.151-0.312,0.224-0.468C17.339,246.264,17.261,246.419,17.189,246.576
		z"/>
	<path style="fill:#FFF2BB;" d="M9.444,270.538c0.094-0.489,0.2-0.976,0.301-1.464C9.644,269.562,9.538,270.049,9.444,270.538z"/>
	<path style="fill:#FFF2BB;" d="M13.376,255.975c0.017-0.048,0.036-0.095,0.051-0.142C13.41,255.879,13.393,255.927,13.376,255.975z
		"/>
	<path style="fill:#FFF2BB;" d="M21.954,237.51c0.117-0.199,0.241-0.393,0.36-0.591C22.195,237.116,22.072,237.312,21.954,237.51z"
		/>
	<path style="fill:#FFF2BB;" d="M7.538,290.428c0-1.235,0.029-2.469,0.073-3.703C7.567,287.959,7.538,289.193,7.538,290.428z"/>
	<path style="fill:#FFF2BB;" d="M30.891,224.697c0.093-0.114,0.189-0.225,0.284-0.338C31.08,224.472,30.984,224.583,30.891,224.697z
		"/>
	<path style="fill:#FFF2BB;" d="M7.805,282.938c0.022-0.311,0.053-0.621,0.078-0.932C7.858,282.316,7.827,282.627,7.805,282.938z"/>
	<path style="fill:#FFF2BB;" d="M8.014,280.445c0.115-1.198,0.257-2.394,0.413-3.589C8.271,278.051,8.129,279.247,8.014,280.445z"/>
	<path style="fill:#FFF2BB;" d="M24.695,233.125c0.109-0.165,0.224-0.327,0.334-0.493C24.919,232.796,24.805,232.959,24.695,233.125
		z"/>
	<path style="fill:#FFF2BB;" d="M8.997,273.004c0.105-0.62,0.221-1.239,0.337-1.857C9.217,271.765,9.102,272.384,8.997,273.004z"/>
	<path style="fill:#FFF2BB;" d="M27.672,228.852c0.162-0.221,0.332-0.437,0.496-0.658C28.005,228.413,27.836,228.631,27.672,228.852
		z"/>
</g>
<path style="fill:#BCBEC0;" d="M502.194,376.413h1.648c0-6.76-0.57-13.387-1.648-19.842H266.338
	c-1.078,6.455-1.648,13.081-1.648,19.842h1.648H502.194z"/>
<path d="M510.295,397.65c0.542-3.289,0.958-6.618,1.243-9.985c0.009-0.109,0.02-0.218,0.029-0.326
	c0.132-1.611,0.232-3.23,0.303-4.858c0.012-0.262,0.02-0.523,0.03-0.784c0.061-1.606,0.1-3.217,0.1-4.837
	c0-1.621-0.041-3.231-0.1-4.837c-0.01-0.262-0.019-0.523-0.03-0.785c-0.071-1.627-0.171-3.246-0.302-4.856
	c-0.009-0.11-0.02-0.221-0.029-0.331c-0.284-3.365-0.7-6.692-1.242-9.978c-0.019-0.115-0.031-0.232-0.05-0.347
	c-0.008-0.05-0.022-0.099-0.032-0.15c-10.16-60.164-62.626-106.139-125.636-106.139s-115.475,45.975-125.636,106.139
	c-0.009,0.05-0.023,0.098-0.031,0.15c-0.019,0.115-0.031,0.232-0.05,0.347c-0.542,3.286-0.957,6.614-1.242,9.978
	c-0.009,0.11-0.021,0.221-0.029,0.331c-0.132,1.61-0.231,3.229-0.302,4.856c-0.012,0.262-0.02,0.523-0.03,0.785
	c-0.061,1.606-0.1,3.216-0.1,4.837c0,1.621,0.041,3.231,0.1,4.837c0.01,0.262,0.019,0.522,0.03,0.784
	c0.071,1.627,0.172,3.247,0.302,4.858c0.009,0.109,0.02,0.218,0.029,0.326c0.285,3.367,0.701,6.696,1.243,9.985
	c0.019,0.114,0.031,0.229,0.05,0.343c0.008,0.05,0.022,0.098,0.031,0.148c10.16,60.165,62.626,106.141,125.636,106.141
	c63.011,0,115.477-45.976,125.636-106.141c0.009-0.049,0.023-0.097,0.031-0.148C510.263,397.879,510.276,397.764,510.295,397.65z
	 M384.577,265.131c52.053,0,95.904,35.782,108.254,84.039H350.167c-4.335,0-7.847,3.513-7.847,7.847s3.512,7.847,7.847,7.847H495.66
	c0.003,0.025,0.006,0.05,0.008,0.075c0.098,0.918,0.183,1.836,0.258,2.756c0.005,0.067,0.013,0.134,0.018,0.201
	c0.074,0.923,0.135,1.847,0.185,2.77c0.004,0.075,0.01,0.15,0.015,0.225c0.047,0.882,0.081,1.765,0.107,2.646
	c0.003,0.118,0.01,0.235,0.014,0.354c0.026,0.99,0.04,1.98,0.04,2.968c0,0.989-0.014,1.978-0.04,2.968
	c-0.003,0.116-0.009,0.231-0.014,0.347c-0.026,0.884-0.06,1.769-0.107,2.653c-0.004,0.072-0.009,0.143-0.014,0.216
	c-0.051,0.927-0.112,1.854-0.186,2.78c-0.005,0.063-0.011,0.126-0.017,0.189c-0.075,0.924-0.161,1.847-0.259,2.768
	c-0.003,0.024-0.005,0.048-0.008,0.072H273.493c-0.002-0.024-0.005-0.048-0.008-0.072c-0.098-0.922-0.184-1.845-0.259-2.768
	c-0.005-0.063-0.011-0.126-0.017-0.189c-0.074-0.926-0.135-1.853-0.186-2.78c-0.004-0.072-0.009-0.143-0.014-0.216
	c-0.047-0.885-0.081-1.769-0.107-2.653c-0.003-0.116-0.01-0.231-0.014-0.347c-0.026-0.99-0.04-1.98-0.04-2.968
	c0-0.989,0.014-1.978,0.04-2.968c0.003-0.118,0.01-0.235,0.014-0.354c0.026-0.882,0.06-1.764,0.107-2.646
	c0.004-0.075,0.01-0.15,0.015-0.225c0.051-0.924,0.112-1.847,0.186-2.77c0.005-0.067,0.013-0.134,0.018-0.201
	c0.075-0.92,0.161-1.838,0.258-2.756c0.003-0.025,0.006-0.05,0.008-0.075h50.909c4.335,0,7.847-3.513,7.847-7.847
	s-3.512-7.847-7.847-7.847h-48.079C288.673,300.913,332.523,265.131,384.577,265.131z M384.577,488.588
	c-52.053,0-95.904-35.782-108.255-84.039h216.509C480.481,452.806,436.63,488.588,384.577,488.588z"/>
<path d="M362.397,40.468c-43.665-43.666-114.715-43.666-158.381,0L191.44,53.044c-3.065,3.065-3.065,8.033,0,11.097
	c3.065,3.066,8.033,3.065,11.097,0l12.575-12.575c37.546-37.546,98.639-37.545,136.186,0c37.546,37.546,37.546,98.638,0,136.186
	l-90.656,90.658c9.395-37.037-0.363-77.975-29.287-106.899c-21.152-21.153-49.276-32.802-79.191-32.802
	c-9.434,0-18.69,1.161-27.605,3.411l59.766-59.766c3.065-3.065,3.065-8.033,0-11.097c-3.065-3.065-8.033-3.065-11.097,0
	L32.802,211.683l0,0l-0.002,0.002c-0.018,0.018-0.036,0.037-0.053,0.055c-0.657,0.658-1.305,1.323-1.944,1.993
	c-0.092,0.096-0.18,0.196-0.272,0.293c-0.57,0.604-1.135,1.211-1.691,1.825c-0.019,0.021-0.037,0.042-0.055,0.063
	C10.18,236.517,0,262.913,0,290.874c0,27.962,10.18,54.357,28.785,74.959c0.02,0.022,0.039,0.044,0.059,0.066
	c0.553,0.611,1.116,1.216,1.683,1.817c0.094,0.099,0.184,0.201,0.278,0.299c0.656,0.689,1.321,1.373,1.997,2.049
	c0.676,0.676,1.36,1.341,2.05,1.998c0.091,0.087,0.184,0.171,0.276,0.256c0.609,0.575,1.222,1.147,1.843,1.708
	c0.014,0.011,0.027,0.023,0.04,0.036c20.605,18.617,47.01,28.805,74.982,28.805s54.377-10.188,74.982-28.805
	c0.014-0.011,0.027-0.023,0.04-0.036c0.62-0.561,1.234-1.131,1.843-1.708c0.091-0.087,0.185-0.169,0.276-0.256
	c0.691-0.657,1.374-1.323,2.05-1.998l171.216-171.215C406.063,155.184,406.063,84.134,362.397,40.468z M220.259,182.608
	c37.544,37.545,37.546,98.634,0.005,136.18l-40.178,40.178c-1.163,1.163-2.351,2.29-3.558,3.382
	c-0.172,0.155-0.351,0.298-0.523,0.452c-1.058,0.943-2.125,1.871-3.214,2.759c-0.031,0.026-0.064,0.049-0.095,0.074
	c-35.23,28.648-86.149,28.653-121.385,0.014c-0.038-0.03-0.077-0.059-0.115-0.09c-1.084-0.883-2.145-1.807-3.199-2.744
	c-0.178-0.158-0.362-0.306-0.539-0.466c-1.207-1.091-2.394-2.218-3.557-3.382C6.356,321.42,6.355,260.329,43.898,222.782
	l40.175-40.175c18.189-18.188,42.371-28.205,68.093-28.205S202.07,164.421,220.259,182.608z"/>
</svg>